<svg width="100%" height="100%" viewBox="0 0 1632 621" version="1.1" xmlns="http://www.w3.org/2000/svg" xmlns:xlink="http://www.w3.org/1999/xlink" xml:space="preserve" xmlns:serif="http://www.serif.com/" style="fill-rule:evenodd;clip-rule:evenodd;stroke-linejoin:round;stroke-miterlimit:2;">
    <g transform="matrix(1,0,0,1,0,-846.565)">
        <g id="radlr-logo" transform="matrix(1.67421,0,0,0.893161,2191.98,296.115)" style="fill:white">
            <g transform="matrix(0.597297,0,0,1.11962,-1480.12,459.463)">
                <path d="M370.613,403.208L300.511,403.208L300.511,751.673L370.613,751.673L370.613,403.208ZM380.666,403.208L458.88,403.208C458.932,403.208 458.984,403.208 459.036,403.208C478.312,403.196 529.281,388.287 527.951,333.874L523.28,290.832C519.626,251.784 488.461,221.366 455.765,221.366L300.4,221.186L299.511,150.75L488.624,150.75C544.987,150.75 594.95,202.328 594.95,264.96L601.22,362.018C604.029,432.046 537.396,474.28 498.659,474.28L489.14,474.28L601.22,751.673L521.126,751.673L380.666,403.208Z"/>
            </g>
            <g transform="matrix(0.597297,0,0,1.11962,-697.646,459.463)">
                <path d="M370.613,403.208L300.511,403.208L300.511,751.673L370.613,751.673L370.613,403.208ZM380.666,403.208L458.88,403.208C458.932,403.208 458.984,403.208 459.036,403.208C478.312,403.196 529.281,388.287 527.951,333.874L523.28,290.832C519.626,251.784 488.461,221.366 455.765,221.366L300.4,221.186L299.511,150.75L488.624,150.75C544.987,150.75 594.95,202.328 594.95,264.96L601.22,362.018C604.029,432.046 537.396,474.28 498.659,474.28L489.14,474.28L601.22,751.673L521.126,751.673L380.666,403.208Z"/>
            </g>
            <g transform="matrix(0.597297,0,0,1.11962,-1372.58,459.463)">
                <path d="M1211.61,680.183L1211.61,150.586L1139.99,150.586L1139.99,751.173L1411.03,751.173L1411.03,680.183L1211.61,680.183Z"/>
            </g>
            <g transform="matrix(0.597297,0,0,1.11962,-1241.91,459.463)">
                <path d="M598.421,150.75L598.421,751.673L785.439,751.673C835.155,751.673 898.034,715.139 898.034,639.578L897.681,262.691C897.681,214.793 859.061,150.75 785.439,150.75L598.421,150.75ZM671.213,221.92L670.039,680.183L755.85,680.349C800.162,680.349 824.765,642.464 824.765,611.434L826.028,290.835C826.028,259.805 800.521,221.92 755.85,221.92L671.213,221.92Z"/>
            </g>
            <g transform="matrix(0.597297,0,0,1.11962,-1327,459.463)">
                <path d="M578.195,150.75L732.779,751.673L659.297,751.673L541.367,309.342L424.659,751.673L349.955,751.673L505.538,150.75L505.304,150.75L578.429,150.75L578.195,150.75Z"/>
            </g>
        </g>
    </g>
</svg>
