<svg width="258" height="208" viewBox="0 0 258 208" fill="none" xmlns="http://www.w3.org/2000/svg">
    <path
        d="M16.5919 191.168C13.0651 191.168 9.88568 190.553 7.05356 189.324C4.22145 188.095 1.87026 186.278 0 183.874L5.61079 179.064C7.21387 180.935 8.95055 182.297 10.8208 183.152C12.7445 183.954 14.9087 184.355 17.3133 184.355C18.2751 184.355 19.1568 184.248 19.9584 184.034C20.8134 183.767 21.5347 183.393 22.1225 182.912C22.7638 182.431 23.2447 181.87 23.5653 181.228C23.8859 180.534 24.0462 179.786 24.0462 178.984C24.0462 177.595 23.5386 176.473 22.5233 175.618C21.989 175.244 21.134 174.843 19.9584 174.415C18.8362 173.934 17.3667 173.454 15.5499 172.973C12.4506 172.171 9.9124 171.263 7.93526 170.247C5.95812 169.232 4.4352 168.083 3.36647 166.801C2.56493 165.785 1.97714 164.69 1.60308 163.514C1.22903 162.285 1.042 160.949 1.042 159.507C1.042 157.743 1.41606 156.14 2.16416 154.697C2.9657 153.201 4.03443 151.919 5.37033 150.85C6.75967 149.728 8.36275 148.873 10.1796 148.285C12.0498 147.697 14.027 147.403 16.111 147.403C18.0881 147.403 20.0385 147.671 21.9622 148.205C23.9394 148.739 25.7562 149.514 27.4127 150.529C29.0692 151.545 30.4586 152.747 31.5807 154.136L26.8516 159.346C25.8364 158.331 24.7142 157.449 23.4852 156.701C22.3096 155.9 21.1073 155.285 19.8782 154.858C18.6492 154.43 17.527 154.217 16.5118 154.217C15.3896 154.217 14.3743 154.323 13.4659 154.537C12.5575 154.751 11.7827 155.072 11.1414 155.499C10.5536 155.927 10.0994 156.461 9.77881 157.102C9.45819 157.743 9.29788 158.465 9.29788 159.266C9.35132 159.961 9.51162 160.629 9.77881 161.27C10.0994 161.858 10.5269 162.366 11.0613 162.793C11.6491 163.221 12.5308 163.675 13.7064 164.156C14.882 164.637 16.3782 165.091 18.195 165.518C20.8668 166.213 23.0577 166.988 24.7676 167.843C26.531 168.644 27.9204 169.579 28.9356 170.648C30.0044 171.663 30.7525 172.839 31.18 174.175C31.6075 175.511 31.8212 177.007 31.8212 178.664C31.8212 181.068 31.1265 183.232 29.7372 185.156C28.4013 187.026 26.5845 188.496 24.2867 189.565C21.989 190.633 19.424 191.168 16.5919 191.168Z"
        fill="white" />
    <path
        d="M40.9982 190.366V131.052H49.2541V156.942L47.8113 157.904C48.3457 156.033 49.3877 154.323 50.9373 152.774C52.487 151.171 54.3305 149.888 56.468 148.926C58.6054 147.911 60.7963 147.403 63.0406 147.403C66.2468 147.403 68.9186 148.045 71.056 149.327C73.1935 150.556 74.7965 152.453 75.8653 155.018C76.934 157.583 77.4684 160.816 77.4684 164.717V190.366H69.2125V165.278C69.2125 162.873 68.8919 160.896 68.2506 159.346C67.6094 157.743 66.6208 156.594 65.2849 155.9C63.949 155.152 62.2925 154.831 60.3154 154.938C58.7123 154.938 57.2428 155.205 55.9069 155.739C54.571 156.22 53.3954 156.915 52.3801 157.823C51.4183 158.732 50.6434 159.801 50.0556 161.03C49.5213 162.205 49.2541 163.488 49.2541 164.877V190.366H45.1662C44.4716 190.366 43.7769 190.366 43.0822 190.366C42.3876 190.366 41.6929 190.366 40.9982 190.366Z"
        fill="white" />
    <path
        d="M108.306 191.168C103.977 191.168 100.13 190.259 96.7636 188.442C93.4505 186.572 90.8322 184.034 88.9085 180.828C87.0382 177.622 86.1031 173.934 86.1031 169.766C86.1031 166.453 86.6374 163.434 87.7062 160.709C88.7749 157.984 90.2444 155.633 92.1146 153.655C94.0383 151.625 96.3094 150.075 98.9277 149.007C101.6 147.884 104.485 147.323 107.584 147.323C110.31 147.323 112.848 147.858 115.199 148.926C117.55 149.942 119.581 151.358 121.291 153.175C123.054 154.991 124.39 157.156 125.298 159.667C126.26 162.125 126.715 164.824 126.661 167.763L126.581 171.289H92.1948L90.3513 164.717H119.447L118.245 166.079V164.156C118.085 162.392 117.497 160.816 116.482 159.427C115.466 158.037 114.184 156.942 112.634 156.14C111.084 155.339 109.401 154.938 107.584 154.938C104.699 154.938 102.268 155.499 100.29 156.621C98.3132 157.69 96.817 159.293 95.8017 161.43C94.7865 163.514 94.2788 166.106 94.2788 169.205C94.2788 172.144 94.8933 174.709 96.1224 176.9C97.3514 179.038 99.0881 180.694 101.332 181.87C103.577 183.045 106.168 183.633 109.107 183.633C111.191 183.633 113.115 183.286 114.878 182.591C116.695 181.896 118.646 180.641 120.73 178.824L124.898 184.675C123.615 185.958 122.039 187.08 120.169 188.042C118.352 189.003 116.401 189.778 114.317 190.366C112.287 190.9 110.283 191.168 108.306 191.168Z"
        fill="white" />
    <path
        d="M135.633 190.366V148.285H143.969V161.511L143.168 158.304C143.756 156.274 144.744 154.43 146.134 152.774C147.576 151.117 149.206 149.808 151.023 148.846C152.893 147.884 154.817 147.403 156.794 147.403C157.702 147.403 158.557 147.484 159.359 147.644C160.214 147.804 160.882 147.991 161.363 148.205L159.199 157.182C158.557 156.915 157.836 156.701 157.034 156.541C156.286 156.327 155.538 156.22 154.79 156.22C153.347 156.22 151.958 156.514 150.622 157.102C149.34 157.636 148.191 158.411 147.176 159.427C146.214 160.388 145.439 161.537 144.851 162.873C144.263 164.156 143.969 165.572 143.969 167.121V190.366H135.633Z"
        fill="white" />
    <path
        d="M167.961 208V148.285H176.297V157.904L175.015 157.182C175.335 155.579 176.244 154.056 177.74 152.613C179.236 151.117 181.053 149.915 183.19 149.007C185.381 148.045 187.626 147.564 189.923 147.564C193.717 147.564 197.084 148.499 200.023 150.369C202.962 152.239 205.286 154.804 206.996 158.064C208.706 161.324 209.561 165.064 209.561 169.286C209.561 173.454 208.706 177.194 206.996 180.507C205.34 183.767 203.042 186.358 200.103 188.282C197.164 190.152 193.851 191.087 190.164 191.087C187.706 191.087 185.328 190.607 183.03 189.645C180.732 188.629 178.782 187.347 177.179 185.797C175.576 184.248 174.587 182.645 174.213 180.988L176.297 179.866V208H167.961ZM188.801 183.473C191.259 183.473 193.45 182.858 195.374 181.629C197.298 180.4 198.82 178.717 199.943 176.58C201.065 174.442 201.626 172.011 201.626 169.286C201.626 166.56 201.065 164.156 199.943 162.072C198.874 159.934 197.378 158.251 195.454 157.022C193.53 155.793 191.313 155.178 188.801 155.178C186.29 155.178 184.072 155.793 182.148 157.022C180.225 158.198 178.702 159.854 177.58 161.992C176.457 164.129 175.896 166.56 175.896 169.286C175.896 172.011 176.457 174.442 177.58 176.58C178.702 178.717 180.225 180.4 182.148 181.629C184.072 182.858 186.29 183.473 188.801 183.473Z"
        fill="white" />
    <path
        d="M234.718 191.168C231.245 191.168 228.065 190.206 225.18 188.282C222.348 186.358 220.077 183.74 218.367 180.427C216.657 177.114 215.802 173.373 215.802 169.205C215.802 164.984 216.657 161.243 218.367 157.984C220.13 154.671 222.481 152.079 225.42 150.209C228.413 148.339 231.753 147.403 235.44 147.403C237.631 147.403 239.634 147.724 241.451 148.365C243.268 149.007 244.844 149.915 246.18 151.091C247.57 152.213 248.692 153.522 249.547 155.018C250.455 156.514 251.016 158.117 251.23 159.827L249.386 159.186V148.285H257.723V190.366H249.386V180.347L251.31 179.786C250.99 181.228 250.322 182.645 249.306 184.034C248.344 185.37 247.089 186.572 245.539 187.641C244.043 188.71 242.36 189.565 240.489 190.206C238.673 190.847 236.749 191.168 234.718 191.168ZM236.882 183.553C239.394 183.553 241.612 182.938 243.535 181.709C245.459 180.48 246.955 178.797 248.024 176.66C249.146 174.469 249.707 171.984 249.707 169.205C249.707 166.48 249.146 164.049 248.024 161.911C246.955 159.774 245.459 158.091 243.535 156.862C241.612 155.633 239.394 155.018 236.882 155.018C234.424 155.018 232.233 155.633 230.31 156.862C228.44 158.091 226.943 159.774 225.821 161.911C224.752 164.049 224.218 166.48 224.218 169.205C224.218 171.984 224.752 174.469 225.821 176.66C226.943 178.797 228.44 180.48 230.31 181.709C232.233 182.938 234.424 183.553 236.882 183.553Z"
        fill="white" />
    <path
        d="M135.539 8.59522C138.288 8.59522 140.007 11.5385 138.632 13.8931L98.3831 82.8394C97.7452 83.9322 96.5662 84.6054 95.2903 84.6054L78.0038 84.6054C75.2469 84.6054 73.5297 81.6472 74.9198 79.2926L115.623 10.3463C116.263 9.26191 117.437 8.59521 118.707 8.59521L135.539 8.59522Z"
        fill="url(#paint0_linear_3_1383)" />
    <path
        d="M177.327 84.6143C180.084 84.6142 181.801 81.6549 180.41 79.3003L139.672 10.354C139.032 9.27027 137.858 8.60407 136.589 8.60407L119.405 8.60406C116.645 8.60406 114.929 11.5675 116.324 13.9221L157.187 82.8684C157.828 83.9498 159 84.6143 160.268 84.6143L177.327 84.6143Z"
        fill="url(#paint1_linear_3_1383)" />
    <path
        d="M182.638 48.2698C179.889 48.2698 178.171 51.2131 179.546 53.5678L219.794 122.514C220.432 123.607 221.611 124.28 222.887 124.28L240.174 124.28C242.931 124.28 244.648 121.322 243.258 118.967L202.555 50.0209C201.915 48.9365 200.74 48.2698 199.471 48.2698L182.638 48.2698Z"
        fill="url(#paint2_linear_3_1383)" />
    <path
        d="M139.642 124.28C136.885 124.28 135.167 121.321 136.559 118.966L177.296 50.0198C177.937 48.936 179.111 48.2698 180.38 48.2698L199.538 48.2698C202.33 48.2698 204.042 51.296 202.582 53.6494L159.792 122.596C159.143 123.642 157.99 124.28 156.749 124.28H139.642Z"
        fill="url(#paint3_linear_3_1383)" />
    <path
        d="M72.4476 48.1133C75.1967 48.1133 76.9149 51.0566 75.5404 53.4113L35.2915 122.358C34.6535 123.45 33.4746 124.124 32.1987 124.124L14.9122 124.124C12.1553 124.124 10.4381 121.165 11.8282 118.811L52.5311 49.8644C53.1713 48.78 54.3455 48.1133 55.6152 48.1133L72.4476 48.1133Z"
        fill="url(#paint4_linear_3_1383)" />
    <path
        d="M115.444 124.124C118.201 124.124 119.919 121.164 118.527 118.81L77.7894 49.8634C77.1491 48.7796 75.9753 48.1134 74.7061 48.1134L55.5479 48.1133C52.7559 48.1133 51.0437 51.1395 52.5042 53.4929L95.2937 122.439C95.9432 123.486 97.0957 124.124 98.3373 124.124H115.444Z"
        fill="url(#paint5_linear_3_1383)" />
    <defs>
        <linearGradient id="paint0_linear_3_1383" x1="123.268" y1="22.0088" x2="85.5725" y2="83.908"
            gradientUnits="userSpaceOnUse">
            <stop stop-color="#66A5C1" />
            <stop offset="1" stop-color="#215167" />
        </linearGradient>
        <linearGradient id="paint1_linear_3_1383" x1="138.302" y1="25.5949" x2="176.672" y2="89.5507"
            gradientUnits="userSpaceOnUse">
            <stop stop-color="#66A5C1" />
            <stop offset="1" stop-color="#215167" />
        </linearGradient>
        <linearGradient id="paint2_linear_3_1383" x1="231.475" y1="130.303" x2="184.112" y2="43.915"
            gradientUnits="userSpaceOnUse">
            <stop stop-color="#66A5C1" />
            <stop offset="1" stop-color="#215167" />
        </linearGradient>
        <linearGradient id="paint3_linear_3_1383" x1="187.843" y1="43.2595" x2="140.48" y2="129.647"
            gradientUnits="userSpaceOnUse">
            <stop stop-color="#66A5C1" />
            <stop offset="1" stop-color="#215167" />
        </linearGradient>
        <linearGradient id="paint4_linear_3_1383" x1="23.6107" y1="130.146" x2="70.9742" y2="43.7585"
            gradientUnits="userSpaceOnUse">
            <stop stop-color="#66A5C1" />
            <stop offset="1" stop-color="#215167" />
        </linearGradient>
        <linearGradient id="paint5_linear_3_1383" x1="67.2429" y1="43.1032" x2="114.606" y2="129.491"
            gradientUnits="userSpaceOnUse">
            <stop stop-color="#66A5C1" />
            <stop offset="1" stop-color="#215167" />
        </linearGradient>
    </defs>
</svg>