<svg width="384" height="216" viewBox="0 0 384 216" fill="none" xmlns="http://www.w3.org/2000/svg">
<path d="M202.566 13.7259C206.956 13.7259 209.7 18.4261 207.505 22.1863L143.23 132.288C142.211 134.033 140.329 135.108 138.291 135.108L110.686 135.108C106.284 135.108 103.541 130.384 105.761 126.624L170.761 16.5223C171.783 14.7906 173.658 13.7259 175.686 13.7259L202.566 13.7259Z" fill="url(#paint0_linear_1_777)"/>
<path d="M269.297 135.122C273.7 135.122 276.443 130.397 274.221 126.636L209.166 16.5346C208.143 14.8039 206.269 13.74 204.242 13.74L176.801 13.74C172.394 13.74 169.652 18.4724 171.881 22.2324L237.136 132.334C238.159 134.061 240.032 135.122 242.056 135.122L269.297 135.122Z" fill="url(#paint1_linear_1_777)"/>
<path d="M277.779 77.0832C273.389 77.0832 270.645 81.7834 272.84 85.5436L337.115 195.646C338.134 197.391 340.016 198.466 342.054 198.466L369.659 198.466C374.061 198.466 376.804 193.742 374.584 189.982L309.584 79.8796C308.562 78.1479 306.687 77.0832 304.659 77.0832L277.779 77.0832Z" fill="url(#paint2_linear_1_777)"/>
<path d="M209.118 198.466C204.714 198.466 201.972 193.74 204.194 189.98L269.249 79.8778C270.271 78.1471 272.146 77.0832 274.173 77.0832L304.767 77.0832C309.226 77.0832 311.96 81.9158 309.627 85.6739L241.296 195.776C240.259 197.447 238.418 198.466 236.435 198.466H209.118Z" fill="url(#paint3_linear_1_777)"/>
<path d="M101.813 76.8333C106.203 76.8333 108.947 81.5335 106.752 85.2937L42.4777 195.396C41.459 197.141 39.5763 198.216 37.5388 198.216L9.93363 198.216C5.53113 198.216 2.78886 193.492 5.00865 189.732L70.0082 79.6296C71.0305 77.898 72.9056 76.8333 74.9331 76.8333L101.813 76.8333Z" fill="url(#paint4_linear_1_777)"/>
<path d="M170.475 198.216C174.879 198.216 177.621 193.49 175.399 189.73L110.344 79.6279C109.321 77.8973 107.447 76.8334 105.42 76.8334L74.8257 76.8333C70.3671 76.8333 67.6329 81.6659 69.9652 85.424L138.297 195.526C139.334 197.197 141.174 198.216 143.157 198.216H170.475Z" fill="url(#paint5_linear_1_777)"/>
<defs>
<linearGradient id="paint0_linear_1_777" x1="182.97" y1="35.1463" x2="122.773" y2="133.995" gradientUnits="userSpaceOnUse">
<stop stop-color="#66A5C1"/>
<stop offset="1" stop-color="#215167"/>
</linearGradient>
<linearGradient id="paint1_linear_1_777" x1="206.977" y1="40.8731" x2="268.252" y2="143.006" gradientUnits="userSpaceOnUse">
<stop stop-color="#66A5C1"/>
<stop offset="1" stop-color="#215167"/>
</linearGradient>
<linearGradient id="paint2_linear_1_777" x1="355.768" y1="208.083" x2="280.132" y2="70.1289" gradientUnits="userSpaceOnUse">
<stop stop-color="#66A5C1"/>
<stop offset="1" stop-color="#215167"/>
</linearGradient>
<linearGradient id="paint3_linear_1_777" x1="286.091" y1="69.0821" x2="210.455" y2="207.037" gradientUnits="userSpaceOnUse">
<stop stop-color="#66A5C1"/>
<stop offset="1" stop-color="#215167"/>
</linearGradient>
<linearGradient id="paint4_linear_1_777" x1="23.8245" y1="207.833" x2="99.4603" y2="69.8789" gradientUnits="userSpaceOnUse">
<stop stop-color="#66A5C1"/>
<stop offset="1" stop-color="#215167"/>
</linearGradient>
<linearGradient id="paint5_linear_1_777" x1="93.5018" y1="68.8324" x2="169.137" y2="206.787" gradientUnits="userSpaceOnUse">
<stop stop-color="#66A5C1"/>
<stop offset="1" stop-color="#215167"/>
</linearGradient>
</defs>
</svg>
