<svg width="353" height="87" viewBox="0 0 353 87" fill="none" xmlns="http://www.w3.org/2000/svg">
<path d="M64.7908 12.9406C65.9963 12.9406 66.7497 14.2359 66.147 15.2721L48.498 45.6145C48.2183 46.0954 47.7013 46.3917 47.1419 46.3917L39.5618 46.3917C38.3529 46.3917 37.6 45.0898 38.2095 44.0536L56.0575 13.7112C56.3382 13.234 56.8531 12.9406 57.4099 12.9406L64.7908 12.9406Z" fill="url(#paint0_linear_3_2532)"/>
<path d="M83.1144 46.3956C84.3235 46.3956 85.0765 45.0932 84.4664 44.057L66.6031 13.7146C66.3223 13.2376 65.8076 12.9445 65.251 12.9445L57.7161 12.9445C56.506 12.9445 55.7532 14.2486 56.3651 15.2848L74.2833 45.6273C74.5643 46.1032 75.0785 46.3956 75.6342 46.3956L83.1144 46.3956Z" fill="url(#paint1_linear_3_2532)"/>
<path d="M85.4435 30.4009C84.2381 30.4009 83.4846 31.6962 84.0874 32.7324L101.736 63.0748C102.016 63.5558 102.533 63.852 103.092 63.852L110.673 63.852C111.881 63.852 112.634 62.5502 112.025 61.5139L94.1768 31.1715C93.8961 30.6943 93.3812 30.4009 92.8245 30.4009L85.4435 30.4009Z" fill="url(#paint2_linear_3_2532)"/>
<path d="M66.5899 63.852C65.3807 63.852 64.6278 62.5497 65.2378 61.5134L83.1012 31.171C83.382 30.6941 83.8967 30.4009 84.4532 30.4009L92.854 30.4009C94.0783 30.4009 94.829 31.7327 94.1886 32.7684L75.4256 63.1108C75.1408 63.5713 74.6355 63.852 74.091 63.852H66.5899Z" fill="url(#paint3_linear_3_2532)"/>
<path d="M37.1255 30.332C38.3309 30.332 39.0844 31.6273 38.4816 32.6635L20.8327 63.0059C20.553 63.4869 20.036 63.7831 19.4765 63.7831L11.8965 63.7831C10.6876 63.7831 9.93462 62.4812 10.5441 61.445L28.3922 31.1026C28.6729 30.6254 29.1878 30.332 29.7445 30.332L37.1255 30.332Z" fill="url(#paint4_linear_3_2532)"/>
<path d="M55.9791 63.7831C57.1883 63.7831 57.9412 62.4808 57.3312 61.4445L39.4678 31.1021C39.187 30.6252 38.6723 30.332 38.1158 30.332L29.715 30.332C28.4907 30.332 27.74 31.6638 28.3804 32.6994L47.1434 63.0419C47.4282 63.5025 47.9335 63.7831 48.478 63.7831H55.9791Z" fill="url(#paint5_linear_3_2532)"/>
<path d="M131.854 65.2469C128.752 65.2469 125.955 64.7097 123.464 63.6353C120.973 62.5609 118.905 60.9727 117.26 58.8707L122.195 54.6666C123.605 56.3015 125.133 57.4927 126.778 58.2401C128.47 58.9408 130.374 59.2911 132.489 59.2911C133.335 59.2911 134.111 59.1977 134.816 59.0108C135.568 58.7773 136.202 58.4503 136.719 58.0299C137.283 57.6095 137.706 57.119 137.988 56.5585C138.27 55.9512 138.411 55.2972 138.411 54.5966C138.411 53.3821 137.965 52.4011 137.072 51.6537C136.602 51.3267 135.85 50.9764 134.816 50.6027C133.829 50.1823 132.536 49.7619 130.938 49.3415C128.212 48.6408 125.979 47.8467 124.24 46.9592C122.501 46.0717 121.161 45.0674 120.221 43.9463C119.516 43.0587 118.999 42.1011 118.67 41.0735C118.341 39.9991 118.176 38.8313 118.176 37.5701C118.176 36.0286 118.505 34.6273 119.163 33.366C119.868 32.0581 120.808 30.937 121.984 30.0028C123.206 29.0218 124.616 28.2744 126.214 27.7606C127.859 27.2468 129.598 26.9899 131.431 26.9899C133.17 26.9899 134.886 27.2234 136.578 27.6905C138.317 28.1577 139.916 28.835 141.373 29.7225C142.83 30.61 144.052 31.6611 145.039 32.8756L140.879 37.43C139.986 36.5424 138.999 35.7717 137.918 35.1177C136.884 34.4171 135.826 33.8799 134.745 33.5062C133.664 33.1325 132.677 32.9456 131.784 32.9456C130.797 32.9456 129.904 33.039 129.105 33.2259C128.306 33.4127 127.624 33.693 127.06 34.0667C126.543 34.4404 126.143 34.9075 125.861 35.4681C125.579 36.0286 125.438 36.6592 125.438 37.3599C125.485 37.9671 125.626 38.551 125.861 39.1116C126.143 39.6254 126.519 40.0692 126.989 40.4429C127.506 40.8166 128.282 41.2136 129.316 41.634C130.35 42.0544 131.666 42.4515 133.264 42.8252C135.615 43.4324 137.542 44.1098 139.046 44.8571C140.597 45.5578 141.819 46.3753 142.712 47.3095C143.652 48.197 144.31 49.2247 144.686 50.3925C145.062 51.5603 145.25 52.8682 145.25 54.3163C145.25 56.4183 144.639 58.3102 143.417 59.9918C142.242 61.6267 140.644 62.9113 138.623 63.8455C136.602 64.7797 134.346 65.2469 131.854 65.2469Z" fill="black"/>
<path d="M153.323 64.5462V12.696H160.585V35.3279L159.316 36.1687C159.786 34.5338 160.702 33.0391 162.066 31.6844C163.429 30.2831 165.05 29.162 166.93 28.3212C168.811 27.4336 170.738 26.9899 172.712 26.9899C175.532 26.9899 177.882 27.5504 179.763 28.6715C181.643 29.7459 183.053 31.4041 183.993 33.6463C184.933 35.8885 185.403 38.7145 185.403 42.1245V64.5462H178.141V42.615C178.141 40.5129 177.859 38.7846 177.295 37.43C176.731 36.0286 175.861 35.0243 174.686 34.4171C173.511 33.7631 172.054 33.4828 170.315 33.5762C168.905 33.5762 167.612 33.8098 166.437 34.2769C165.262 34.6973 164.228 35.3046 163.335 36.0987C162.489 36.8928 161.807 37.827 161.29 38.9014C160.82 39.929 160.585 41.0501 160.585 42.2646V64.5462H156.989C156.378 64.5462 155.767 64.5462 155.156 64.5462C154.545 64.5462 153.934 64.5462 153.323 64.5462Z" fill="black"/>
<path d="M212.528 65.2469C208.721 65.2469 205.337 64.4528 202.376 62.8646C199.461 61.2296 197.158 59.0108 195.466 56.2081C193.821 53.4054 192.998 50.1823 192.998 46.5388C192.998 43.6426 193.468 41.0034 194.408 38.6211C195.349 36.2388 196.641 34.1835 198.286 32.4552C199.978 30.6801 201.976 29.3255 204.279 28.3912C206.629 27.4103 209.168 26.9198 211.894 26.9198C214.291 26.9198 216.524 27.3869 218.592 28.3212C220.66 29.2087 222.446 30.4465 223.95 32.0347C225.502 33.6229 226.677 35.5148 227.476 37.7102C228.322 39.859 228.721 42.2179 228.674 44.7871L228.604 47.8701H198.357L196.735 42.1245H222.329L221.271 43.3157V41.634C221.13 40.0925 220.613 38.7145 219.72 37.5C218.827 36.2855 217.699 35.3279 216.336 34.6273C214.973 33.9266 213.492 33.5762 211.894 33.5762C209.356 33.5762 207.217 34.0667 205.478 35.0477C203.739 35.9819 202.423 37.3833 201.53 39.2517C200.636 41.0735 200.19 43.339 200.19 46.0483C200.19 48.6175 200.73 50.8596 201.812 52.7748C202.893 54.6433 204.42 56.0913 206.394 57.119C208.369 58.1467 210.648 58.6605 213.234 58.6605C215.067 58.6605 216.759 58.3569 218.31 57.7496C219.908 57.1424 221.624 56.0446 223.457 54.4564L227.123 59.5714C225.995 60.6925 224.608 61.6734 222.963 62.5142C221.365 63.355 219.65 64.0324 217.816 64.5462C216.03 65.0133 214.268 65.2469 212.528 65.2469Z" fill="black"/>
<path d="M236.567 64.5462V27.7606H243.899V39.3218L243.194 36.5191C243.711 34.744 244.581 33.1325 245.803 31.6844C247.072 30.2363 248.506 29.0919 250.104 28.2511C251.749 27.4103 253.441 26.9899 255.18 26.9899C255.979 26.9899 256.731 27.0599 257.436 27.2001C258.188 27.3402 258.776 27.5037 259.199 27.6905L257.295 35.5381C256.731 35.3046 256.097 35.1177 255.392 34.9776C254.734 34.7907 254.076 34.6973 253.417 34.6973C252.148 34.6973 250.926 34.9542 249.751 35.4681C248.623 35.9352 247.612 36.6125 246.719 37.5C245.873 38.3408 245.192 39.3451 244.675 40.5129C244.158 41.634 243.899 42.8719 243.899 44.2265V64.5462H236.567Z" fill="black"/>
<path d="M265.003 79.9611V27.7606H272.336V36.1687L271.208 35.5381C271.49 34.1368 272.289 32.8055 273.605 31.5443C274.921 30.2363 276.519 29.1853 278.399 28.3912C280.326 27.5504 282.3 27.13 284.322 27.13C287.659 27.13 290.62 27.9475 293.205 29.5824C295.791 31.2173 297.835 33.4595 299.339 36.3089C300.843 39.1583 301.596 42.4281 301.596 46.1184C301.596 49.7619 300.843 53.0317 299.339 55.9279C297.882 58.7773 295.861 61.0428 293.276 62.7244C290.691 64.3593 287.776 65.1768 284.533 65.1768C282.371 65.1768 280.279 64.7564 278.258 63.9156C276.237 63.0281 274.521 61.907 273.111 60.5523C271.701 59.1977 270.831 57.7963 270.502 56.3483L272.336 55.3673V79.9611H265.003ZM283.335 58.5204C285.497 58.5204 287.424 57.9832 289.116 56.9088C290.808 55.8344 292.148 54.363 293.135 52.4945C294.122 50.6261 294.615 48.5007 294.615 46.1184C294.615 43.7361 294.122 41.634 293.135 39.8123C292.195 37.9438 290.879 36.4724 289.186 35.398C287.494 34.3236 285.544 33.7864 283.335 33.7864C281.125 33.7864 279.175 34.3236 277.483 35.398C275.79 36.4257 274.451 37.8737 273.464 39.7422C272.477 41.6107 271.983 43.7361 271.983 46.1184C271.983 48.5007 272.477 50.6261 273.464 52.4945C274.451 54.363 275.79 55.8344 277.483 56.9088C279.175 57.9832 281.125 58.5204 283.335 58.5204Z" fill="black"/>
<path d="M323.724 65.2469C320.669 65.2469 317.872 64.4061 315.334 62.7244C312.843 61.0428 310.845 58.7539 309.341 55.8578C307.837 52.9617 307.085 49.6918 307.085 46.0483C307.085 42.3581 307.837 39.0882 309.341 36.2388C310.892 33.3427 312.961 31.0772 315.546 29.4422C318.178 27.8073 321.116 26.9899 324.359 26.9899C326.286 26.9899 328.049 27.2701 329.647 27.8307C331.245 28.3912 332.632 29.1853 333.807 30.213C335.029 31.1939 336.016 32.3384 336.768 33.6463C337.567 34.9542 338.061 36.3556 338.249 37.8504L336.627 37.2898V27.7606H343.96V64.5462H336.627V55.7877L338.319 55.2972C338.037 56.5585 337.45 57.7963 336.557 59.0108C335.71 60.1786 334.606 61.2297 333.243 62.1639C331.927 63.0981 330.446 63.8455 328.801 64.4061C327.203 64.9666 325.511 65.2469 323.724 65.2469ZM325.628 58.5904C327.837 58.5904 329.788 58.0532 331.48 56.9789C333.172 55.9045 334.488 54.4331 335.428 52.5646C336.416 50.6494 336.909 48.4773 336.909 46.0483C336.909 43.666 336.416 41.5406 335.428 39.6721C334.488 37.8037 333.172 36.3322 331.48 35.2579C329.788 34.1835 327.837 33.6463 325.628 33.6463C323.466 33.6463 321.539 34.1835 319.847 35.2579C318.201 36.3322 316.885 37.8037 315.898 39.6721C314.958 41.5406 314.488 43.666 314.488 46.0483C314.488 48.4773 314.958 50.6494 315.898 52.5646C316.885 54.4331 318.201 55.9045 319.847 56.9789C321.539 58.0532 323.466 58.5904 325.628 58.5904Z" fill="black"/>
<defs>
<linearGradient id="paint0_linear_3_2532" x1="59.4101" y1="18.8437" x2="42.7931" y2="46.0312" gradientUnits="userSpaceOnUse">
<stop stop-color="#66A5C1"/>
<stop offset="1" stop-color="#215167"/>
</linearGradient>
<linearGradient id="paint1_linear_3_2532" x1="66.0022" y1="20.4219" x2="82.9172" y2="48.514" gradientUnits="userSpaceOnUse">
<stop stop-color="#66A5C1"/>
<stop offset="1" stop-color="#215167"/>
</linearGradient>
<linearGradient id="paint2_linear_3_2532" x1="106.858" y1="66.5025" x2="85.9736" y2="28.5482" gradientUnits="userSpaceOnUse">
<stop stop-color="#66A5C1"/>
<stop offset="1" stop-color="#215167"/>
</linearGradient>
<linearGradient id="paint3_linear_3_2532" x1="87.7258" y1="28.1959" x2="66.8411" y2="66.1502" gradientUnits="userSpaceOnUse">
<stop stop-color="#66A5C1"/>
<stop offset="1" stop-color="#215167"/>
</linearGradient>
<linearGradient id="paint4_linear_3_2532" x1="15.7108" y1="66.4336" x2="36.5954" y2="28.4793" gradientUnits="userSpaceOnUse">
<stop stop-color="#66A5C1"/>
<stop offset="1" stop-color="#215167"/>
</linearGradient>
<linearGradient id="paint5_linear_3_2532" x1="34.8432" y1="28.1271" x2="55.7279" y2="66.0814" gradientUnits="userSpaceOnUse">
<stop stop-color="#66A5C1"/>
<stop offset="1" stop-color="#215167"/>
</linearGradient>
</defs>
</svg>
